<svg aria-hidden="true" style="position: absolute; width: 0; height: 0; overflow: hidden;" version="1.1" xmlns="http://www.w3.org/2000/svg" xmlns:xlink="http://www.w3.org/1999/xlink">
<defs>
<symbol id="icon-goodreads" viewBox="0 0 32 32">
<title>goodreads</title>
<path d="M26.033 21.303v-20.649h-2.745v3.875h-0.085c-0.281-0.607-0.641-1.188-1.123-1.743-0.48-0.549-1.023-1.036-1.643-1.459-0.621-0.419-1.283-0.748-2.025-0.981-0.737-0.225-1.52-0.345-2.361-0.345-1.613 0-3.067 0.3-4.328 0.893-1.263 0.596-2.324 1.409-3.18 2.44s-1.511 2.235-1.96 3.615c-0.448 1.383-0.675 2.839-0.675 4.377 0 1.599 0.188 3.101 0.567 4.509 0.381 1.409 0.983 2.635 1.824 3.683 0.841 1.040 1.883 1.863 3.167 2.444 1.281 0.581 2.825 0.881 4.628 0.881 1.664 0 3.107-0.42 4.349-1.261s2.184-1.964 2.825-3.367h0.081v3.045c0 2.725-0.561 4.809-1.685 6.273-1.12 1.441-2.965 2.184-5.528 2.184-0.763 0-1.504-0.081-2.225-0.241-0.723-0.16-1.381-0.42-1.983-0.76-0.583-0.361-1.103-0.801-1.524-1.384-0.421-0.58-0.701-1.281-0.843-2.124h-2.809c0.089 1.183 0.42 2.205 0.983 3.067 0.565 0.861 1.281 1.563 2.136 2.124 0.855 0.541 1.823 0.941 2.896 1.203 1.081 0.259 2.185 0.4 3.325 0.4 1.844 0 3.388-0.26 4.648-0.74 1.263-0.501 2.285-1.203 3.068-2.144 0.801-0.944 1.361-2.065 1.724-3.408 0.36-1.343 0.56-2.845 0.56-4.489l-0.059 0.083zM16.055 20.56c-1.273 0-2.379-0.252-3.305-0.761-0.929-0.507-1.703-1.176-2.309-2.004-0.623-0.828-1.063-1.776-1.363-2.852s-0.443-2.177-0.443-3.312c0-1.161 0.14-2.3 0.401-3.417 0.28-1.12 0.72-2.116 1.323-2.987 0.601-0.869 1.383-1.576 2.304-2.112s2.044-0.807 3.347-0.807 2.404 0.279 3.327 0.828c0.901 0.553 1.663 1.279 2.244 2.179 0.581 0.903 1.001 1.905 1.263 3.007 0.26 1.101 0.38 2.208 0.38 3.309 0 1.136-0.16 2.237-0.46 3.312-0.301 1.076-0.763 2.024-1.384 2.852-0.62 0.828-1.361 1.497-2.264 2.004-0.901 0.509-1.944 0.761-3.145 0.761h0.085z"></path>
</symbol>
<symbol id="icon-linkedin-square" viewBox="0 0 24 28">
<title>linkedin-square</title>
<path d="M3.703 22.094h3.609v-10.844h-3.609v10.844zM7.547 7.906c-0.016-1.062-0.781-1.875-2.016-1.875s-2.047 0.812-2.047 1.875c0 1.031 0.781 1.875 2 1.875h0.016c1.266 0 2.047-0.844 2.047-1.875zM16.688 22.094h3.609v-6.219c0-3.328-1.781-4.875-4.156-4.875-1.937 0-2.797 1.078-3.266 1.828h0.031v-1.578h-3.609s0.047 1.016 0 10.844v0h3.609v-6.062c0-0.313 0.016-0.641 0.109-0.875 0.266-0.641 0.859-1.313 1.859-1.313 1.297 0 1.813 0.984 1.813 2.453v5.797zM24 6.5v15c0 2.484-2.016 4.5-4.5 4.5h-15c-2.484 0-4.5-2.016-4.5-4.5v-15c0-2.484 2.016-4.5 4.5-4.5h15c2.484 0 4.5 2.016 4.5 4.5z"></path>
</symbol>
<symbol id="icon-github" viewBox="0 0 24 28">
<title>github</title>
<path d="M12 2c6.625 0 12 5.375 12 12 0 5.297-3.437 9.797-8.203 11.391-0.609 0.109-0.828-0.266-0.828-0.578 0-0.391 0.016-1.687 0.016-3.297 0-1.125-0.375-1.844-0.812-2.219 2.672-0.297 5.484-1.313 5.484-5.922 0-1.313-0.469-2.375-1.234-3.219 0.125-0.313 0.531-1.531-0.125-3.187-1-0.313-3.297 1.234-3.297 1.234-0.953-0.266-1.984-0.406-3-0.406s-2.047 0.141-3 0.406c0 0-2.297-1.547-3.297-1.234-0.656 1.656-0.25 2.875-0.125 3.187-0.766 0.844-1.234 1.906-1.234 3.219 0 4.594 2.797 5.625 5.469 5.922-0.344 0.313-0.656 0.844-0.766 1.609-0.688 0.313-2.438 0.844-3.484-1-0.656-1.141-1.844-1.234-1.844-1.234-1.172-0.016-0.078 0.734-0.078 0.734 0.781 0.359 1.328 1.75 1.328 1.75 0.703 2.141 4.047 1.422 4.047 1.422 0 1 0.016 1.937 0.016 2.234 0 0.313-0.219 0.688-0.828 0.578-4.766-1.594-8.203-6.094-8.203-11.391 0-6.625 5.375-12 12-12zM4.547 19.234c0.031-0.063-0.016-0.141-0.109-0.187-0.094-0.031-0.172-0.016-0.203 0.031-0.031 0.063 0.016 0.141 0.109 0.187 0.078 0.047 0.172 0.031 0.203-0.031zM5.031 19.766c0.063-0.047 0.047-0.156-0.031-0.25-0.078-0.078-0.187-0.109-0.25-0.047-0.063 0.047-0.047 0.156 0.031 0.25 0.078 0.078 0.187 0.109 0.25 0.047zM5.5 20.469c0.078-0.063 0.078-0.187 0-0.297-0.063-0.109-0.187-0.156-0.266-0.094-0.078 0.047-0.078 0.172 0 0.281s0.203 0.156 0.266 0.109zM6.156 21.125c0.063-0.063 0.031-0.203-0.063-0.297-0.109-0.109-0.25-0.125-0.313-0.047-0.078 0.063-0.047 0.203 0.063 0.297 0.109 0.109 0.25 0.125 0.313 0.047zM7.047 21.516c0.031-0.094-0.063-0.203-0.203-0.25-0.125-0.031-0.266 0.016-0.297 0.109s0.063 0.203 0.203 0.234c0.125 0.047 0.266 0 0.297-0.094zM8.031 21.594c0-0.109-0.125-0.187-0.266-0.172-0.141 0-0.25 0.078-0.25 0.172 0 0.109 0.109 0.187 0.266 0.172 0.141 0 0.25-0.078 0.25-0.172zM8.937 21.438c-0.016-0.094-0.141-0.156-0.281-0.141-0.141 0.031-0.234 0.125-0.219 0.234 0.016 0.094 0.141 0.156 0.281 0.125s0.234-0.125 0.219-0.219z"></path>
</symbol>
<symbol id="icon-linkedin" viewBox="0 0 24 28">
<title>linkedin</title>
<path d="M5.453 9.766v15.484h-5.156v-15.484h5.156zM5.781 4.984c0.016 1.484-1.109 2.672-2.906 2.672v0h-0.031c-1.734 0-2.844-1.188-2.844-2.672 0-1.516 1.156-2.672 2.906-2.672 1.766 0 2.859 1.156 2.875 2.672zM24 16.375v8.875h-5.141v-8.281c0-2.078-0.75-3.5-2.609-3.5-1.422 0-2.266 0.953-2.641 1.875-0.125 0.344-0.172 0.797-0.172 1.266v8.641h-5.141c0.063-14.031 0-15.484 0-15.484h5.141v2.25h-0.031c0.672-1.062 1.891-2.609 4.672-2.609 3.391 0 5.922 2.219 5.922 6.969z"></path>
</symbol>
</defs>
</svg>
